<svg width="20" height="20" viewBox="0 0 20 20" fill="none" xmlns="http://www.w3.org/2000/svg">
<path d="M6.9248 8.33148L7.67434 10.6787H5.22809L5.96332 8.33148C6.13309 7.76586 6.27437 7.10129 6.41586 6.5498H6.44414C6.58547 7.10129 6.74109 7.75172 6.9248 8.33148ZM14.6023 8.84047C13.5276 8.84047 13.0752 9.81617 13.0044 10.523H16.0304C16.0446 9.88688 15.7618 8.84047 14.6023 8.84047ZM19.9805 3.34637V16.6537C19.9805 18.4834 18.4834 19.9805 16.6536 19.9805H3.34637C1.5166 19.9805 0.0195312 18.4834 0.0195312 16.6536V3.34637C0.0195312 1.5166 1.5166 0.0195312 3.34637 0.0195312H16.6537C18.4834 0.0195312 19.9805 1.5166 19.9805 3.34637ZM10.7003 14.6946L7.60367 5.1641H5.38359L2.3293 14.6946H4.12512L4.94531 11.9938H7.97129L8.83387 14.6946H10.7003ZM17.6707 11.0039C17.6707 9.49098 16.9353 7.6527 14.7012 7.6527C12.4954 7.6527 11.3359 9.44851 11.3359 11.3574C11.3359 13.4643 12.6509 14.8359 14.8851 14.8359C15.8749 14.8359 16.695 14.652 17.2889 14.4116L17.0344 13.2099C16.5111 13.4077 15.9314 13.5208 15.1254 13.5208C14.0225 13.5208 13.0469 12.9836 13.0043 11.7391H17.6141C17.6424 11.5836 17.6707 11.3291 17.6707 11.0039Z" fill="white"/>
</svg>
