<svg width="20" height="20" viewBox="0 0 20 20" fill="none" xmlns="http://www.w3.org/2000/svg">
<g clip-path="url(#clip0_97_421)">
<path d="M7.45833 0.833252H7.29166L3.16666 2.74992C3.09342 2.78187 3.03091 2.83421 2.98658 2.9007C2.94226 2.96719 2.91799 3.04502 2.91666 3.12492V6.20825L2.66666 6.41659L0.999996 7.79159C0.942176 7.82423 0.895421 7.8734 0.865727 7.93278C0.836033 7.99217 0.824752 8.05908 0.83333 8.12492V11.8749C0.829646 11.9402 0.843088 12.0053 0.872323 12.0638C0.901559 12.1222 0.945571 12.172 0.999996 12.2083L2.66666 13.5833L2.91666 13.7916V16.8749C2.91799 16.9548 2.94226 17.0326 2.98658 17.0991C3.03091 17.1656 3.09342 17.218 3.16666 17.2499L7.29166 19.1249H7.45833L7.70833 19.0416L9.375 17.9166V10.6249H8.75C8.58424 10.6249 8.42526 10.5591 8.30805 10.4419C8.19084 10.3246 8.125 10.1657 8.125 9.99992C8.125 9.83416 8.19084 9.67519 8.30805 9.55798C8.42526 9.44077 8.58424 9.37492 8.75 9.37492H9.375V2.04159L7.70833 0.916585L7.45833 0.833252ZM3.75 5.62492L4.91666 6.41659C4.98557 6.46266 5.04462 6.52199 5.09038 6.59111C5.13615 6.66023 5.1677 6.73776 5.18321 6.81919C5.19872 6.90062 5.19788 6.98432 5.18073 7.06542C5.16358 7.14652 5.13047 7.2234 5.08333 7.29159C5.03257 7.37951 4.95975 7.45266 4.87206 7.50381C4.78437 7.55497 4.68485 7.58235 4.58333 7.58325C4.52224 7.5857 4.46128 7.57591 4.40403 7.55444C4.34678 7.53297 4.29441 7.50027 4.25 7.45825L3.75 7.12492V5.62492ZM1.66666 9.37492H3.125C3.29076 9.37492 3.44973 9.44077 3.56694 9.55798C3.68415 9.67519 3.75 9.83416 3.75 9.99992C3.75 10.1657 3.68415 10.3246 3.56694 10.4419C3.44973 10.5591 3.29076 10.6249 3.125 10.6249H1.66666V9.37492ZM3.75 12.8749L4.25 12.5416C4.31485 12.4954 4.38848 12.463 4.46633 12.4464C4.54418 12.4297 4.62462 12.4292 4.70268 12.4448C4.78075 12.4604 4.8548 12.4918 4.92026 12.5372C4.98572 12.5825 5.04122 12.6407 5.08333 12.7083C5.13047 12.7764 5.16358 12.8533 5.18073 12.9344C5.19788 13.0155 5.19872 13.0992 5.18321 13.1807C5.1677 13.2621 5.13615 13.3396 5.09038 13.4087C5.04462 13.4778 4.98557 13.5372 4.91666 13.5833L3.75 14.3749V12.8749ZM8.125 7.74992L6.45833 9.41659V10.5833L8.125 12.2499V14.4166L6.70833 15.8749C6.57443 15.9728 6.41548 16.0306 6.25 16.0416C6.08451 16.0306 5.92556 15.9728 5.79166 15.8749C5.67444 15.7511 5.60912 15.5871 5.60912 15.4166C5.60912 15.2461 5.67444 15.0821 5.79166 14.9583L6.875 13.9166V12.7499L5.20833 11.0833V8.91659L6.875 7.24992V6.08325L5.79166 5.04159C5.70569 4.98895 5.63277 4.9175 5.57839 4.83261C5.52401 4.74773 5.4896 4.65162 5.47773 4.55151C5.46586 4.4514 5.47684 4.34991 5.50986 4.25466C5.54288 4.15941 5.59707 4.07289 5.66835 4.00161C5.73963 3.93033 5.82615 3.87614 5.9214 3.84312C6.01665 3.8101 6.11815 3.79911 6.21825 3.81098C6.31836 3.82285 6.41447 3.85727 6.49936 3.91165C6.58424 3.96602 6.65569 4.03894 6.70833 4.12492L8.125 5.58325V7.74992Z" fill="white"/>
<path d="M19 7.79167L17.3333 6.41667L17.0833 6.20833V3.125C17.082 3.0451 17.0577 2.96727 17.0134 2.90078C16.9691 2.83429 16.9066 2.78195 16.8333 2.75L12.7083 0.875H12.5417L12.2917 0.958333L10.625 2.08333V9.375H11.25C11.4158 9.375 11.5747 9.44085 11.6919 9.55806C11.8092 9.67527 11.875 9.83424 11.875 10C11.875 10.1658 11.8092 10.3247 11.6919 10.4419C11.5747 10.5592 11.4158 10.625 11.25 10.625H10.625V17.9583L12.2917 19.0833L12.5417 19.1667H12.7083L16.8333 17.2917C16.9066 17.2597 16.9691 17.2074 17.0134 17.1409C17.0577 17.0744 17.082 16.9966 17.0833 16.9167V13.7917L17.3333 13.5833L19 12.2083C19.0544 12.1721 19.0984 12.1223 19.1277 12.0638C19.1569 12.0054 19.1703 11.9403 19.1667 11.875V8.125C19.1752 8.05916 19.164 7.99225 19.1343 7.93287C19.1046 7.87348 19.0578 7.82431 19 7.79167ZM16.25 7.125L15.75 7.45833C15.7056 7.50035 15.6532 7.53305 15.596 7.55452C15.5387 7.57599 15.4778 7.58578 15.4167 7.58333C15.3152 7.58243 15.2156 7.55505 15.1279 7.50389C15.0402 7.45274 14.9674 7.37959 14.9167 7.29167C14.8695 7.22348 14.8364 7.1466 14.8193 7.0655C14.8021 6.9844 14.8013 6.9007 14.8168 6.81927C14.8323 6.73784 14.8638 6.66031 14.9096 6.59119C14.9554 6.52207 15.0144 6.46274 15.0833 6.41667L16.25 5.625V7.125ZM11.875 12.25L13.5417 10.5833V9.41667L11.875 7.75V5.58333L13.2917 4.125C13.4193 4.04684 13.5696 4.01392 13.7183 4.03154C13.8669 4.04917 14.0053 4.11632 14.1112 4.22217C14.217 4.32802 14.2842 4.46642 14.3018 4.61508C14.3194 4.76373 14.2865 4.914 14.2083 5.04167L13.125 6.08333V7.25L14.7917 8.91667V11.0833L13.125 12.75V13.9167L14.2083 14.9583C14.3256 15.0821 14.3909 15.2462 14.3909 15.4167C14.3909 15.5872 14.3256 15.7512 14.2083 15.875C14.0803 15.9836 13.9179 16.0433 13.75 16.0433C13.5821 16.0433 13.4197 15.9836 13.2917 15.875L11.875 14.4167V12.25ZM16.25 14.375L15.0833 13.5833C15.0144 13.5373 14.9554 13.4779 14.9096 13.4088C14.8638 13.3397 14.8323 13.2622 14.8168 13.1807C14.8013 13.0993 14.8021 13.0156 14.8193 12.9345C14.8364 12.8534 14.8695 12.7765 14.9167 12.7083C14.9588 12.6408 15.0143 12.5825 15.0797 12.5372C15.1452 12.4919 15.2192 12.4605 15.2973 12.4449C15.3754 12.4293 15.4558 12.4298 15.5337 12.4464C15.6115 12.4631 15.6851 12.4955 15.75 12.5417L16.25 12.875V14.375ZM18.3333 10.625H16.875C16.7092 10.625 16.5503 10.5592 16.4331 10.4419C16.3158 10.3247 16.25 10.1658 16.25 10C16.25 9.83424 16.3158 9.67527 16.4331 9.55806C16.5503 9.44085 16.7092 9.375 16.875 9.375H18.3333V10.625Z" fill="white"/>
</g>
<defs>
<clipPath id="clip0_97_421">
<rect width="20" height="20" fill="white"/>
</clipPath>
</defs>
</svg>
