<svg width="25" height="20" viewBox="0 0 25 20" fill="none" xmlns="http://www.w3.org/2000/svg">
<path fill-rule="evenodd" clip-rule="evenodd" d="M5.19258 0C3.7661 0 2.71059 1.25384 2.75784 2.61362C2.80318 3.92 2.74428 5.61193 2.32012 6.99171C1.89471 8.37551 1.17521 9.25214 0 9.3647V10.6353C1.17521 10.7479 1.89471 11.6245 2.32012 13.0084C2.74428 14.3881 2.80318 16.08 2.75784 17.3864C2.71059 18.746 3.7661 20 5.19279 20H19.8093C21.2358 20 22.2911 18.7462 22.2439 17.3864C22.1985 16.08 22.2574 14.3881 22.6816 13.0084C23.1072 11.6245 23.8248 10.7479 25 10.6353V9.3647C23.8248 9.25214 23.1072 8.37551 22.6816 6.99171C22.2574 5.61214 22.1985 3.92 22.2439 2.61362C22.2911 1.25405 21.2358 0 19.8093 0H5.19258ZM16.9492 12.3113C16.9492 14.1837 15.5584 15.3192 13.2506 15.3192H9.32203C9.20966 15.3192 9.10187 15.2743 9.02242 15.1945C8.94295 15.1147 8.8983 15.0065 8.8983 14.8937V5.1064C8.8983 4.99354 8.94295 4.88531 9.02242 4.8055C9.10187 4.72569 9.20966 4.68087 9.32203 4.68087H13.2282C15.1525 4.68087 16.4154 5.72767 16.4154 7.33491C16.4154 8.46296 15.5659 9.47297 14.4834 9.64977V9.70877C15.957 9.87112 16.9492 10.8958 16.9492 12.3113ZM12.8223 6.0298H10.5822V9.20726H12.4689C13.9273 9.20726 14.7316 8.61747 14.7316 7.56321C14.7316 6.57534 14.04 6.0298 12.8223 6.0298ZM10.5822 10.4681V13.9699H12.9047C14.4231 13.9699 15.2275 13.3579 15.2275 12.2079C15.2275 11.0577 14.4006 10.4679 12.807 10.4679L10.5822 10.4681Z" fill="white"/>
</svg>
