<svg width="571" height="317" viewBox="0 0 571 317" fill="none" xmlns="http://www.w3.org/2000/svg">
<path fill-rule="evenodd" clip-rule="evenodd" d="M571 25.6C571 16.6392 571 12.1587 569.256 8.73615C567.722 5.72556 565.274 3.27787 562.264 1.7439C558.841 0 554.361 0 545.4 0H25.6C16.6392 0 12.1587 0 8.73615 1.7439C5.72556 3.27787 3.27787 5.72556 1.7439 8.73615C0 12.1587 0 16.6392 0 25.6V291.4C0 300.361 0 304.841 1.7439 308.264C3.27787 311.274 5.72556 313.722 8.73615 315.256C12.1587 317 16.6392 317 25.6 317H362C364.761 317 367 314.761 367 312C367 309.239 369.239 307 372 307H539C541.761 307 544 309.239 544 312C544 314.761 546.239 317 549 317H557.5C564.956 317 571 310.956 571 303.5V25.6Z" fill="white" fill-opacity="0.1"/>
</svg>
