<svg width="370" height="214" viewBox="0 0 370 214" fill="none" xmlns="http://www.w3.org/2000/svg">
<path fill-rule="evenodd" clip-rule="evenodd" d="M327.127 20.8925C327.127 14.4702 327.127 11.2591 326.094 8.72052C324.672 5.2274 321.9 2.4559 318.407 1.03362C315.868 0 312.657 0 306.235 0H22.4C14.5593 0 10.6389 0 7.64413 1.52591C5.00986 2.86814 2.86814 5.00986 1.52591 7.64413C0 10.6389 0 14.5593 0 22.4V153.003C0 160.843 0 164.764 1.52591 167.758C2.86814 170.393 5.00986 172.534 7.64413 173.877C10.6389 175.403 14.5593 175.403 22.4 175.403H162.133C166.896 175.403 169.278 175.403 171.22 175.976C175.773 177.321 179.334 180.883 180.68 185.436C181.253 187.378 181.253 189.76 181.253 194.523C181.253 199.286 181.253 201.668 181.827 203.609C183.172 208.163 186.733 211.724 191.287 213.069C193.229 213.643 195.61 213.643 200.373 213.643H347.6C355.441 213.643 359.361 213.643 362.356 212.117C364.99 210.775 367.132 208.633 368.474 205.999C370 203.004 370 199.084 370 191.243V63.2213C370 56.2883 370 52.8217 368.799 50.1126C367.391 46.9346 364.85 44.3942 361.673 42.9857C358.963 41.7851 355.497 41.7851 348.564 41.7851H348.02C341.598 41.7851 338.387 41.7851 335.848 40.7514C332.355 39.3292 329.583 36.5577 328.161 33.0645C327.127 30.526 327.127 27.3148 327.127 20.8925Z" fill="white" fill-opacity="0.1"/>
</svg>
