<svg width="18" height="20" viewBox="0 0 18 20" fill="none" xmlns="http://www.w3.org/2000/svg">
<g clip-path="url(#clip0_93_184)">
<path d="M15.6495 17.8525L17.0842 0H1.125L1.14375 0.231667L2.5575 17.855L2.5695 18.0017L9.04425 20H9.14625L15.636 18L15.648 17.8533L15.6495 17.8525ZM9.1185 3.89917H13.7557L13.6162 5.69917L9.04125 7.95917L9.11775 8.36583H13.4107L12.9165 14.6583L9.102 15.8333L5.289 14.66L5.049 11.6467H6.61875L6.74475 13.1742L6.75675 13.3225L9.0705 14.0058H9.17025L11.4585 13.2992L11.4697 13.1517L11.6857 10.33L11.703 10.1H4.91775L4.77525 8.28917L9.507 6.03833L9.432 5.63H4.572L4.43325 3.89667H9.11325L9.1185 3.89917Z" fill="white"/>
</g>
<defs>
<clipPath id="clip0_93_184">
<rect width="18" height="20" fill="white"/>
</clipPath>
</defs>
</svg>
