<svg width="26" height="26" viewBox="0 0 26 26" fill="none" xmlns="http://www.w3.org/2000/svg">
<path d="M13 4.35864C8.72083 4.35864 5.25055 5.51781 5.25055 6.95503V9.08198C5.25055 10.5264 8.72083 11.6784 13 11.6784C17.2792 11.6784 20.7458 10.5192 20.7458 9.08198V6.95503C20.7494 5.51781 17.2792 4.35864 13 4.35864Z" fill="white"/>
<path d="M13 12.9206C8.91222 12.9206 5.54666 11.8626 5.25055 10.5156C5.25055 10.5806 5.25055 14.0365 5.25055 14.0365C5.25055 15.4809 8.72083 16.6292 13 16.6292C17.2792 16.6292 20.7458 15.4701 20.7458 14.0365C20.7458 14.0365 20.7458 10.5806 20.7458 10.5156C20.4497 11.8626 17.0878 12.9206 13 12.9206Z" fill="white"/>
<path d="M20.7422 15.5278C20.4461 16.8712 17.0878 17.9328 13.0036 17.9328C8.91943 17.9328 5.55026 16.8712 5.25415 15.5278V19.0487C5.25415 20.4931 8.72443 21.6414 13.0036 21.6414C17.2828 21.6414 20.7494 20.4823 20.7494 19.0487L20.7422 15.5278Z" fill="white"/>
</svg>
