<svg width="20" height="20" viewBox="0 0 20 20" fill="none" xmlns="http://www.w3.org/2000/svg">
<rect width="20" height="20" rx="3" fill="white"/>
<path fill-rule="evenodd" clip-rule="evenodd" d="M7.49709 8.32428C6.67029 8.32428 6.00009 9.07439 6.00009 9.99981C6.00009 10.9253 6.67032 11.6755 7.49709 11.6755H8.99408V10.0336C8.99396 10.0224 8.9939 10.0111 8.9939 9.99981C8.9939 9.98858 8.99396 9.9773 8.99408 9.96608V8.32428H7.49709ZM8.99408 7.35132H7.49709C6.67032 7.35132 6.00009 6.6011 6.00009 5.67566C6.00009 4.75022 6.67032 4 7.49709 4H8.99408V7.35132ZM9.8633 4V7.35129L11.3599 7.35121C12.1867 7.35121 12.8571 6.60107 12.8571 5.67566C12.8571 4.75022 12.1869 4 11.3601 4H9.8633ZM11.36 8.32417C10.5413 8.32426 9.87611 9.05999 9.8633 9.97295V10.0267C9.87611 10.9398 10.5414 11.6755 11.3601 11.6755C12.1869 11.6755 12.8571 10.9253 12.8571 9.99981C12.8571 9.07439 12.1867 8.32418 11.36 8.32417ZM7.49709 12.6485C6.67035 12.6485 6 13.3988 6 14.3243C6 15.2498 6.67022 16 7.497 16C8.32379 16 8.99402 15.2498 8.99402 14.3243L8.99408 12.6485H7.49709Z" fill="#191919"/>
</svg>
