<svg width="549" height="317" viewBox="0 0 549 317" fill="none" xmlns="http://www.w3.org/2000/svg">
<path fill-rule="evenodd" clip-rule="evenodd" d="M475 25.6C475 16.6392 475 12.1587 473.256 8.73615C471.722 5.72556 469.274 3.27787 466.264 1.7439C462.841 0 458.361 0 449.4 0L25.6 0C16.6392 0 12.1587 0 8.73615 1.7439C5.72556 3.27787 3.27787 5.72556 1.7439 8.73615C0 12.1587 0 16.6392 0 25.6V258.4C0 267.361 0 271.841 1.7439 275.264C3.27787 278.274 5.72556 280.722 8.73615 282.256C12.1587 284 16.6392 284 25.6 284H338.5C338.964 284 339.196 284 339.393 284.005C347.921 284.214 354.786 291.079 354.995 299.607C355 299.804 355 300.036 355 300.5C355 300.964 355 301.196 355.005 301.393C355.214 309.921 362.079 316.786 370.607 316.995C370.804 317 371.036 317 371.5 317H523.4C532.361 317 536.841 317 540.264 315.256C543.274 313.722 545.722 311.274 547.256 308.264C549 304.841 549 300.361 549 291.4V87.6C549 78.6392 549 74.1587 547.256 70.7362C545.722 67.7256 543.274 65.2779 540.264 63.7439C536.841 62 532.361 62 523.4 62H500.6C491.639 62 487.159 62 483.736 60.2561C480.726 58.7221 478.278 56.2744 476.744 53.2638C475 49.8413 475 45.3608 475 36.4V25.6Z" fill="white" fill-opacity="0.1"/>
</svg>
