<svg width="20" height="20" viewBox="0 0 20 20" fill="none" xmlns="http://www.w3.org/2000/svg">
<g clip-path="url(#clip0_100_717)">
<path d="M8.89035 8.51527L9.63988 10.8626H7.19352L7.92887 8.51527C8.09863 7.94965 8.23996 7.28508 8.38129 6.73359H8.40957C8.55102 7.28512 8.70648 7.93551 8.89035 8.51527ZM19.9805 3.34637V16.6537C19.9805 18.4834 18.4834 19.9805 16.6536 19.9805H3.34637C1.5166 19.9805 0.0195312 18.4834 0.0195312 16.6536V3.34637C0.0195312 1.5166 1.5166 0.0195312 3.34637 0.0195312H16.6537C18.4834 0.0195312 19.9805 1.5166 19.9805 3.34637ZM12.6659 14.8783L9.56902 5.34797H7.3491L4.29484 14.8783H6.09066L6.91086 12.1775H9.93684L10.7994 14.8783H12.6659ZM15.6062 7.99207H13.8528V14.8783H15.6062V7.99207ZM15.7052 6.06906C15.691 5.53172 15.3234 5.12172 14.7295 5.12172C14.1497 5.12172 13.7539 5.53172 13.7539 6.06906C13.7539 6.5923 14.1356 7.00231 14.7154 7.00231C15.3234 7.00227 15.7052 6.59227 15.7052 6.06906Z" fill="white"/>
</g>
<defs>
<clipPath id="clip0_100_717">
<rect width="20" height="20" fill="white"/>
</clipPath>
</defs>
</svg>
