<svg width="16" height="16" viewBox="0 0 16 16" fill="none" xmlns="http://www.w3.org/2000/svg">
<path d="M12.2383 2.85447C12.1088 2.84427 11.9786 2.86098 11.8558 2.90354C11.7331 2.9461 11.6205 3.01359 11.5251 3.10178C11.4297 3.18996 11.3535 3.29693 11.3015 3.41596C11.2494 3.53499 11.2225 3.66351 11.2225 3.79342C11.2225 3.92334 11.2494 4.05185 11.3015 4.17088C11.3535 4.28991 11.4297 4.39688 11.5251 4.48507C11.6205 4.57325 11.7331 4.64075 11.8558 4.68331C11.9786 4.72587 12.1088 4.74258 12.2383 4.73238C12.4746 4.71377 12.6952 4.60678 12.856 4.43274C13.0169 4.25871 13.1063 4.03042 13.1063 3.79342C13.1063 3.55643 13.0169 3.32814 12.856 3.1541C12.6952 2.98007 12.4746 2.87308 12.2383 2.85447Z" fill="white" fill-opacity="0.5"/>
<path d="M8.06393 4.06982C7.28431 4.06982 6.52219 4.30101 5.87395 4.73415C5.22572 5.16728 4.72048 5.78292 4.42213 6.5032C4.12378 7.22348 4.04572 8.01606 4.19781 8.7807C4.34991 9.54535 4.72534 10.2477 5.27662 10.799C5.8279 11.3503 6.53027 11.7257 7.29491 11.8778C8.05956 12.0299 8.85214 11.9518 9.57242 11.6535C10.2927 11.3551 10.9083 10.8499 11.3415 10.2017C11.7746 9.55343 12.0058 8.79131 12.0058 8.01168C12.0058 6.96624 11.5905 5.96361 10.8512 5.22437C10.112 4.48513 9.10938 4.06982 8.06393 4.06982ZM8.06393 10.5349C7.56488 10.5349 7.07703 10.387 6.66209 10.1097C6.24714 9.83244 5.92373 9.43836 5.73275 8.97729C5.54177 8.51623 5.4918 8.00889 5.58916 7.51942C5.68652 7.02996 5.92684 6.58036 6.27972 6.22747C6.63261 5.87459 7.08221 5.63427 7.57167 5.53691C8.06113 5.43955 8.56848 5.48952 9.02954 5.6805C9.4906 5.87148 9.88468 6.19489 10.1619 6.60984C10.4392 7.02479 10.5872 7.51263 10.5872 8.01168C10.5826 8.6784 10.3149 9.31633 9.84237 9.7867C9.36983 10.2571 8.73066 10.5218 8.06393 10.5233V10.5349Z" fill="white" fill-opacity="0.5"/>
<path d="M11.1919 16H4.79651C3.5238 15.9954 2.30471 15.487 1.40585 14.5859C0.506996 13.6849 0.00152875 12.4646 0 11.1919L0 4.79651C0.00461038 3.5238 0.513031 2.30471 1.41407 1.40585C2.3151 0.506996 3.53542 0.00152875 4.80814 0L11.2035 0C12.4782 0.0015386 13.7003 0.508603 14.6017 1.40997C15.503 2.31134 16.0101 3.53341 16.0116 4.80814V11.2035C16.007 12.4782 15.497 13.6991 14.5934 14.5983C13.6899 15.4974 12.4666 16.0015 11.1919 16ZM4.80814 1.50581C3.93278 1.50735 3.09371 1.85577 2.47474 2.47474C1.85577 3.09371 1.50735 3.93278 1.50581 4.80814V11.2035C1.50735 12.0788 1.85577 12.9179 2.47474 13.5369C3.09371 14.1559 3.93278 14.5043 4.80814 14.5058H11.2035C12.0788 14.5043 12.9179 14.1559 13.5369 13.5369C14.1559 12.9179 14.5043 12.0788 14.5058 11.2035V4.80814C14.5043 3.93278 14.1559 3.09371 13.5369 2.47474C12.9179 1.85577 12.0788 1.50735 11.2035 1.50581H4.80814Z" fill="white" fill-opacity="0.5"/>
</svg>
