<svg width="20" height="20" viewBox="0 0 20 20" fill="none" xmlns="http://www.w3.org/2000/svg">
<g clip-path="url(#clip0_93_351)">
<path d="M11.9167 0.916748C12.1312 1.14817 12.2853 1.42899 12.3653 1.73427C12.4452 2.03956 12.4486 2.35986 12.375 2.66675C12.2118 3.35636 11.8664 3.9895 11.375 4.50008C10.9891 4.9079 10.5711 5.28411 10.125 5.62508C9.57634 6.00036 9.10874 6.48213 8.75 7.04175C8.60258 7.26736 8.51064 7.52464 8.48167 7.79258C8.4527 8.06052 8.48754 8.33151 8.58333 8.58341C8.875 9.45841 9.625 10.0834 10 10.8751C9.58333 10.5417 9.16667 10.1251 8.75 9.75008C8.31841 9.33618 7.95303 8.85837 7.66667 8.33341C7.48205 7.95848 7.43772 7.52986 7.54167 7.12508C7.70312 6.72197 7.96058 6.36439 8.29167 6.08342C9.125 5.29175 10.1667 4.70841 11 3.87508C11.4731 3.44008 11.8066 2.87459 11.9583 2.25008C12.0492 1.80852 12.0349 1.35178 11.9167 0.916748Z" fill="white"/>
<path d="M11.25 5.95833C12.1671 5.34681 13.1816 4.89592 14.25 4.625C13.3805 5.10293 12.5575 5.6609 11.7917 6.29167C11.5262 6.52161 11.3131 6.80577 11.1667 7.125C11.0972 7.38673 11.1118 7.66367 11.2083 7.91667C11.448 8.32144 11.7124 8.71106 12 9.08333C12.1044 9.24993 12.1665 9.43947 12.181 9.63551C12.1955 9.83155 12.162 10.0282 12.0833 10.2083C11.8108 10.7375 11.3715 11.1622 10.8333 11.4167C10.7917 11.4583 10.75 11.5417 10.6667 11.5417C10.8361 11.4044 10.9754 11.2337 11.0758 11.0401C11.1762 10.8465 11.2355 10.6342 11.25 10.4167C11.2149 10.086 11.0679 9.77731 10.8333 9.54167C10.375 9 9.95834 8.33333 10.0417 7.66667C10.1152 7.31428 10.2604 6.98078 10.4683 6.6869C10.6761 6.39301 10.9422 6.14502 11.25 5.95833Z" fill="white"/>
<path d="M14.4167 11.0834C14.6448 10.908 14.9209 10.8063 15.2083 10.7917C15.4575 10.7452 15.7139 10.7547 15.9589 10.8196C16.2039 10.8844 16.4315 11.003 16.625 11.1667C16.7742 11.3022 16.8895 11.4708 16.9619 11.6589C17.0342 11.847 17.0616 12.0495 17.0417 12.25C16.9129 12.6931 16.6511 13.0858 16.2917 13.375C15.6054 13.8553 14.8238 14.1822 14 14.3334L14.1667 14.2084C14.8039 13.9323 15.3728 13.5198 15.8333 13C15.9886 12.8602 16.1076 12.6848 16.1802 12.4888C16.2528 12.2929 16.2767 12.0823 16.25 11.875C16.1794 11.6288 16.0325 11.4113 15.8302 11.254C15.628 11.0967 15.3811 11.0078 15.125 11C14.8859 10.9869 14.6462 11.0151 14.4167 11.0834Z" fill="white"/>
<path d="M5.08335 11.5C5.93878 11.1335 6.8611 10.9491 7.79168 10.9583C7.23394 11.0674 6.68927 11.235 6.16668 11.4583C6.03171 11.5039 5.91489 11.5915 5.83335 11.7083C5.83335 11.7917 5.91668 11.8333 6.00001 11.875C6.32461 11.9741 6.66082 12.0301 7.00001 12.0417C8.19397 12.1112 9.39133 12.0972 10.5833 12C11.7558 11.9369 12.9241 11.8117 14.0833 11.625C13.8143 11.7076 13.5609 11.8343 13.3333 12C13.2009 12.0606 13.0607 12.1027 12.9167 12.125C11.4871 12.3894 10.0371 12.5288 8.58335 12.5417H6.87501C6.25684 12.5228 5.64236 12.439 5.04168 12.2917C4.85783 12.2742 4.68356 12.2016 4.54168 12.0833C4.52175 12.0759 4.50406 12.0635 4.49027 12.0473C4.47648 12.0311 4.46705 12.0116 4.46288 11.9908C4.4587 11.9699 4.45993 11.9483 4.46642 11.9281C4.47292 11.9078 4.48448 11.8895 4.50001 11.875C4.66912 11.7245 4.86781 11.6109 5.08335 11.5417V11.5Z" fill="white"/>
<path d="M6.16668 13.4167C6.42207 13.2369 6.70297 13.0965 7.00001 13C6.91668 13.125 6.75001 13.2083 6.75001 13.375C6.75922 13.4205 6.77914 13.4631 6.80813 13.4993C6.83711 13.5356 6.87433 13.5644 6.91668 13.5833L7.41668 13.7083C8.31641 13.7991 9.22139 13.827 10.125 13.7917C10.9167 13.75 11.75 13.625 12.5833 13.5C12.8114 13.686 13.0637 13.8402 13.3333 13.9583C12.3492 14.2091 11.3456 14.3764 10.3333 14.4583C9.37441 14.5139 8.41246 14.486 7.45834 14.375C7.07156 14.3084 6.69396 14.1965 6.33334 14.0417C6.18821 13.992 6.06846 13.8873 6.00001 13.75C5.98454 13.6837 5.99273 13.6141 6.02316 13.5532C6.0536 13.4924 6.10437 13.4441 6.16668 13.4167Z" fill="white"/>
<path d="M6.70834 15.3333C6.9375 15.1803 7.19116 15.0675 7.45833 15C7.375 15.0833 7.20833 15.2083 7.29167 15.3333C7.44884 15.4527 7.63669 15.5249 7.83333 15.5417C8.62158 15.6319 9.41571 15.6597 10.2083 15.625C10.7968 15.5827 11.3816 15.4991 11.9583 15.375C12.2884 15.5753 12.6373 15.7427 13 15.875C12.4508 16.1044 11.8779 16.2721 11.2917 16.375C10.2869 16.5551 9.25935 16.5692 8.25 16.4167C7.80347 16.3553 7.36832 16.2289 6.95834 16.0417C6.8735 16.0081 6.79644 15.9576 6.73194 15.8931C6.66744 15.8286 6.61686 15.7515 6.58334 15.6667C6.57054 15.605 6.57549 15.5409 6.59761 15.4819C6.61973 15.4229 6.65813 15.3714 6.70834 15.3333Z" fill="white"/>
<path d="M4.12501 16.5834C4.55505 16.4361 5.00416 16.3519 5.45834 16.3334C5.62947 16.3158 5.80217 16.3446 5.95834 16.4167C5.42274 16.457 4.89962 16.5983 4.41667 16.8334C4.35287 16.8515 4.29374 16.8832 4.24339 16.9264C4.19303 16.9695 4.15264 17.0231 4.12501 17.0834C4.12501 17.2084 4.29167 17.2501 4.41667 17.2917C5.08842 17.5204 5.7907 17.6468 6.50001 17.6667C8.62283 17.8195 10.7544 17.8056 12.875 17.6251C13.6751 17.5613 14.4691 17.4359 15.25 17.2501C15.5002 17.1831 15.7295 17.0541 15.9167 16.8751C15.9506 16.8131 15.9608 16.7409 15.9455 16.6719C15.9301 16.6029 15.8903 16.5419 15.8333 16.5001C16 16.5834 16.25 16.6667 16.2083 16.8751C16.095 17.0774 15.9198 17.2381 15.7083 17.3334C15.1032 17.5767 14.475 17.7582 13.8333 17.8751C11.9245 18.2291 9.98027 18.355 8.04167 18.2501C6.58927 18.2126 5.14127 18.0734 3.70834 17.8334C3.44459 17.8257 3.19272 17.722 3.00001 17.5417C2.97692 17.5093 2.96072 17.4725 2.9524 17.4336C2.94408 17.3946 2.94381 17.3544 2.95162 17.3154C2.95942 17.2764 2.97514 17.2393 2.99779 17.2066C3.02045 17.1739 3.04956 17.1461 3.08334 17.1251C3.39322 16.8803 3.74668 16.6965 4.12501 16.5834Z" fill="white"/>
<path d="M15.75 18.1252C16.2229 17.997 16.6632 17.7697 17.0417 17.4585C17 17.8335 16.625 18.0835 16.2917 18.2502C15.6188 18.5643 14.9024 18.775 14.1667 18.8752C12.6084 19.1049 11.0321 19.1886 9.45833 19.1252C8.38328 19.1471 7.30868 19.0634 6.25 18.8752C5.985 18.8221 5.73122 18.7234 5.5 18.5835C6.43509 18.7512 7.38332 18.8349 8.33333 18.8335C9.90474 18.8828 11.4777 18.8271 13.0417 18.6668C13.9561 18.5507 14.8612 18.3696 15.75 18.1252Z" fill="white"/>
</g>
<defs>
<clipPath id="clip0_93_351">
<rect width="20" height="20" fill="white"/>
</clipPath>
</defs>
</svg>
