<svg width="1140" height="217" viewBox="0 0 1140 217" fill="none" xmlns="http://www.w3.org/2000/svg">
<path fill-rule="evenodd" clip-rule="evenodd" d="M1060 25.6C1060 16.6392 1060 12.1587 1058.26 8.73615C1056.72 5.72556 1054.27 3.27787 1051.26 1.7439C1047.84 0 1043.36 0 1034.4 0H25.6C16.6392 0 12.1587 0 8.73615 1.7439C5.72556 3.27787 3.27787 5.72556 1.7439 8.73615C0 12.1587 0 16.6392 0 25.6V191.4C0 200.361 0 204.841 1.7439 208.264C3.27787 211.274 5.72556 213.722 8.73615 215.256C12.1587 217 16.6391 217 25.6 217H1114.4C1123.36 217 1127.84 217 1131.26 215.256C1134.27 213.722 1136.72 211.274 1138.26 208.264C1140 204.841 1140 200.361 1140 191.4V81.6C1140 72.6392 1140 68.1587 1138.26 64.7362C1136.72 61.7256 1134.27 59.2779 1131.26 57.7439C1127.84 56 1123.36 56 1114.4 56H1085.6C1076.64 56 1072.16 56 1068.74 54.2561C1065.73 52.7221 1063.28 50.2744 1061.74 47.2638C1060 43.8413 1060 39.3608 1060 30.4V25.6Z" fill="white" fill-opacity="0.1"/>
</svg>
