<svg width="421" height="138" viewBox="0 0 421 138" fill="none" xmlns="http://www.w3.org/2000/svg">
<path fill-rule="evenodd" clip-rule="evenodd" d="M420.516 25.6C420.516 16.6392 420.516 12.1587 418.772 8.73615C417.238 5.72556 414.79 3.27787 411.78 1.7439C408.357 0 403.877 0 394.916 0H26.2206C17.2598 0 12.7793 0 9.35676 1.7439C6.34616 3.27787 3.89848 5.72556 2.3645 8.73615C0.620605 12.1587 0.620605 16.6392 0.620605 25.6V111.579C0.620605 120.54 0.620605 125.02 2.3645 128.443C3.89848 131.453 6.34616 133.901 9.35676 135.435C12.7793 137.179 17.2598 137.179 26.2206 137.179H320.705C323.42 137.179 325.621 134.978 325.621 132.262C325.621 129.547 327.823 127.345 330.538 127.345H397.3C400.015 127.345 402.217 129.547 402.217 132.262C402.217 134.978 404.418 137.179 407.133 137.179H411.366C416.419 137.179 420.516 133.082 420.516 128.029V25.6Z" fill="white" fill-opacity="0.1"/>
</svg>
