<svg width="20" height="20" viewBox="0 0 20 20" fill="none" xmlns="http://www.w3.org/2000/svg">
<g clip-path="url(#clip0_100_714)">
<path d="M16.6536 0.0195312H3.34637C1.5166 0.0195312 0.0195312 1.5166 0.0195312 3.34637V16.6537C0.0195312 18.4834 1.5166 19.9805 3.34637 19.9805H16.6537C18.4834 19.9805 19.9805 18.4834 19.9805 16.6537V3.34637C19.9805 1.5166 18.4834 0.0195312 16.6536 0.0195312ZM9.58316 10.1767C8.89035 10.8695 7.80148 11.1949 6.57133 11.1949C6.24609 11.1949 5.94918 11.1806 5.72289 11.1382V14.7298H3.99793V5.32668C4.62008 5.21359 5.48266 5.12867 6.65613 5.12867C7.92887 5.12867 8.86211 5.39734 9.47016 5.90645C10.0358 6.37313 10.4034 7.1225 10.4034 8.01332C10.4033 8.91832 10.1205 9.66766 9.58316 10.1767ZM13.2024 14.8713C12.3681 14.8713 11.6187 14.6733 11.1096 14.3905L11.449 13.132C11.8449 13.3724 12.5944 13.627 13.2165 13.627C13.98 13.627 14.3195 13.3159 14.3195 12.8634C14.3195 12.3968 14.0367 12.1564 13.1882 11.8595C11.8448 11.3928 11.2794 10.6575 11.2935 9.85152C11.2935 8.63547 12.2974 7.68812 13.8952 7.68812C14.6589 7.68812 15.3234 7.88613 15.7193 8.09812L15.3799 9.32832C15.083 9.15871 14.5314 8.93242 13.9235 8.93242C13.3013 8.93242 12.962 9.22937 12.962 9.65352C12.962 10.092 13.2872 10.3041 14.1639 10.6152C15.4082 11.0676 15.988 11.7039 16.0021 12.7221C16.0021 13.9664 15.0265 14.8713 13.2024 14.8713ZM8.66406 8.08398C8.66406 9.20109 7.87215 9.83738 6.57133 9.83738C6.21785 9.83738 5.93504 9.82324 5.72289 9.76672V6.54273C5.9068 6.50035 6.24613 6.45793 6.72695 6.45793C7.92887 6.45793 8.66406 7.02355 8.66406 8.08398Z" fill="white"/>
</g>
<defs>
<clipPath id="clip0_100_714">
<rect width="20" height="20" fill="white"/>
</clipPath>
</defs>
</svg>
