<svg width="21" height="21" viewBox="0 0 21 21" fill="none" xmlns="http://www.w3.org/2000/svg">
<path d="M18.5063 5.15352C17.2252 3.23361 15.2968 1.83799 13.0727 1.22105C10.8486 0.604123 8.47685 0.806966 6.3898 1.79261C4.30274 2.77825 2.63937 4.48105 1.70289 6.59062C0.766409 8.70019 0.61918 11.076 1.28804 13.2851C1.9569 15.4941 3.39731 17.3893 5.3467 18.6251C7.2961 19.8608 9.62466 20.3549 11.9079 20.0173C14.1912 19.6797 16.2771 18.5329 17.7854 16.7858C19.2938 15.0388 20.1241 12.8079 20.125 10.4998C20.1258 8.59685 19.5625 6.7364 18.5063 5.15352ZM17.045 14.8748C15.9949 16.4442 14.4158 17.584 12.5956 18.0865C10.7753 18.589 8.83514 18.4207 7.12861 17.6122C5.42209 16.8038 4.06286 15.4091 3.29869 13.6823C2.53451 11.9555 2.41626 10.0116 2.9655 8.20493C3.51473 6.39824 4.69488 4.84905 6.29083 3.83974C7.88678 2.83042 9.79228 2.42818 11.66 2.70633C13.5277 2.98448 15.2333 3.92449 16.4659 5.35505C17.6985 6.7856 18.3761 8.61144 18.375 10.4998C18.3742 12.0575 17.9113 13.5801 17.045 14.8748ZM13.125 9.62477V7.87477C13.125 7.17857 12.8485 6.5109 12.3562 6.01861C11.8639 5.52633 11.1962 5.24977 10.5 5.24977C9.80384 5.24977 9.13616 5.52633 8.64388 6.01861C8.15159 6.5109 7.87503 7.17857 7.87503 7.87477V9.62477C7.64297 9.62477 7.42041 9.71696 7.25632 9.88105C7.09222 10.0451 7.00003 10.2677 7.00003 10.4998V13.9998C7.00003 14.2318 7.09222 14.4544 7.25632 14.6185C7.42041 14.7826 7.64297 14.8748 7.87503 14.8748H13.125C13.3571 14.8748 13.5797 14.7826 13.7438 14.6185C13.9078 14.4544 14 14.2318 14 13.9998V10.4998C14 10.2677 13.9078 10.0451 13.7438 9.88105C13.5797 9.71696 13.3571 9.62477 13.125 9.62477ZM11.8125 9.62477H9.18753V7.87477C9.18753 7.52667 9.32581 7.19283 9.57196 6.94669C9.8181 6.70055 10.1519 6.56227 10.5 6.56227C10.8481 6.56227 11.182 6.70055 11.4281 6.94669C11.6743 7.19283 11.8125 7.52667 11.8125 7.87477V9.62477Z" fill="white"/>
<path opacity="0.5" d="M16.8788 13.1774C16.9439 13.1111 16.9971 13.0342 17.0362 12.9499C17.0751 12.8646 17.0959 12.7723 17.0975 12.6786C17.0947 12.5879 17.0739 12.4987 17.0362 12.4161C16.9971 12.3319 16.9439 12.2549 16.8788 12.1886C16.8072 12.1281 16.7238 12.0834 16.6337 12.0574C16.5442 12.0397 16.4521 12.0397 16.3625 12.0574C16.2477 12.0585 16.1355 12.0919 16.0387 12.1536C15.9435 12.2149 15.8653 12.2992 15.8112 12.3986H14V13.0111H15.7937C15.846 13.117 15.9281 13.2052 16.03 13.2649C16.1299 13.327 16.2449 13.3603 16.3625 13.3611C16.4521 13.3788 16.5442 13.3788 16.6337 13.3611C16.7286 13.3198 16.8125 13.2569 16.8788 13.1774ZM16.625 12.6786C16.6262 12.7111 16.6207 12.7436 16.6089 12.7738C16.597 12.8041 16.579 12.8316 16.556 12.8546C16.533 12.8776 16.5055 12.8956 16.4752 12.9075C16.4449 12.9194 16.4125 12.9249 16.38 12.9236C16.3484 12.9318 16.3153 12.9318 16.2838 12.9236C16.2245 12.8988 16.1773 12.8517 16.1525 12.7924C16.1443 12.7608 16.1443 12.7277 16.1525 12.6961C16.1513 12.6636 16.1568 12.6312 16.1686 12.601C16.1805 12.5707 16.1985 12.5432 16.2215 12.5202C16.2445 12.4972 16.272 12.4792 16.3023 12.4673C16.3326 12.4554 16.365 12.4499 16.3975 12.4511C16.429 12.4421 16.4623 12.4421 16.4938 12.4511C16.5273 12.46 16.5576 12.4782 16.5813 12.5036C16.6064 12.5239 16.6247 12.5514 16.6337 12.5824C16.6427 12.6138 16.6427 12.6472 16.6337 12.6786H16.625ZM16.8525 9.23114L18.0075 8.07614C18.0775 8.30364 18.1388 8.53114 18.1913 8.75864L17.0975 9.84364H15.5663V10.4999H14.9538V9.27489L16.8525 9.23114ZM8.575 16.6249H9.17875V17.6224L8.6975 18.1124C8.47 18.0599 8.2425 17.9986 8.02375 17.9286L8.575 17.3774V16.6249ZM10.815 16.0911V14.8749H10.2025V16.1261C10.1005 16.1799 10.0133 16.2581 9.94875 16.3536C9.88696 16.4504 9.85361 16.5626 9.8525 16.6774C9.8525 16.8514 9.92164 17.0184 10.0447 17.1414C10.1678 17.2645 10.3347 17.3336 10.5087 17.3336C10.5899 17.3469 10.6726 17.3469 10.7537 17.3336C10.8346 17.3007 10.9087 17.2532 10.9725 17.1936C11.0318 17.133 11.0793 17.0617 11.1125 16.9836C11.1475 16.9067 11.1654 16.8231 11.165 16.7386C11.1638 16.621 11.1306 16.5059 11.069 16.4057C11.0073 16.3055 10.9195 16.2239 10.815 16.1699V16.0911ZM10.6838 16.8174C10.6495 16.8524 10.6055 16.8763 10.5575 16.886C10.5095 16.8958 10.4597 16.8909 10.4145 16.8721C10.3693 16.8533 10.3308 16.8213 10.3039 16.7804C10.277 16.7394 10.263 16.6914 10.2637 16.6424C10.2625 16.6099 10.268 16.5775 10.2799 16.5472C10.2918 16.5169 10.3098 16.4894 10.3328 16.4664C10.3558 16.4434 10.3833 16.4254 10.4136 16.4135C10.4438 16.4017 10.4762 16.3962 10.5087 16.3974C10.5577 16.3967 10.6058 16.4107 10.6467 16.4375C10.6877 16.4644 10.7196 16.5029 10.7385 16.5481C10.7573 16.5933 10.7622 16.6432 10.7524 16.6912C10.7427 16.7391 10.7187 16.7831 10.6838 16.8174ZM18.375 10.4999C18.3793 10.5611 18.3793 10.6225 18.375 10.6836L17.5 11.5586H14V10.9461H17.2375L18.375 9.84364C18.375 10.0624 18.375 10.2811 18.375 10.4999ZM12.985 7.07864L15.61 4.45364C15.7698 4.58143 15.9218 4.71876 16.065 4.86489L13.125 7.81364C13.1184 7.56268 13.0711 7.31445 12.985 7.07864ZM4.6375 12.0311C4.54791 12.0139 4.45584 12.0139 4.36625 12.0311C4.27625 12.0571 4.19276 12.1019 4.12125 12.1624C4.05615 12.2287 4.00288 12.3056 3.96375 12.3899C3.92609 12.4724 3.90526 12.5617 3.9025 12.6524C3.90409 12.7461 3.92493 12.8384 3.96375 12.9236C4.00288 13.0079 4.05615 13.0849 4.12125 13.1511C4.19276 13.2117 4.27625 13.2564 4.36625 13.2824C4.45584 13.2996 4.54791 13.2996 4.6375 13.2824C4.75516 13.2812 4.87027 13.248 4.97048 13.1864C5.07068 13.1247 5.15219 13.0369 5.20625 12.9324H7V12.3199H5.25C5.18789 12.2125 5.09696 12.1246 4.9875 12.0661C4.8758 12.0245 4.75523 12.0124 4.6375 12.0311ZM4.795 12.8361C4.75102 12.8805 4.69124 12.9057 4.62875 12.9061H4.54125C4.50771 12.8973 4.47738 12.8791 4.45375 12.8536C4.43478 12.8438 4.41801 12.8302 4.40447 12.8136C4.39093 12.7971 4.38091 12.7779 4.375 12.7574C4.366 12.7259 4.366 12.6926 4.375 12.6611C4.37088 12.6292 4.37088 12.5968 4.375 12.5649L4.4275 12.4861L4.50625 12.4336H4.6025C4.65147 12.4329 4.69953 12.4469 4.74048 12.4738C4.78142 12.5007 4.81338 12.5392 4.83222 12.5844C4.85105 12.6296 4.85591 12.6794 4.84615 12.7274C4.8364 12.7754 4.81249 12.8194 4.7775 12.8536L4.795 12.8361ZM14.9538 14.3761L16.3538 15.7499C16.2138 15.8986 16.065 16.0299 15.9163 16.1699L14.7087 14.9711H13.6937V16.3186L14.5687 17.1936C14.385 17.2986 14.1925 17.3861 14 17.4824L13.125 16.6249V14.9886H12.25V16.2486H11.6375V14.8749H13.125C13.2903 14.8819 13.4538 14.8377 13.5931 14.7485C13.7325 14.6593 13.8409 14.5292 13.9038 14.3761H14.9538ZM10.5 3.58739C10.326 3.58755 10.1592 3.65679 10.0363 3.77989C9.97475 3.83854 9.92594 3.90917 9.89283 3.98743C9.85971 4.0657 9.84301 4.14992 9.84375 4.23489C9.85051 4.35274 9.88661 4.46703 9.94875 4.56739C10.0104 4.66988 10.0979 4.75437 10.2025 4.81239V5.24989H10.5C10.6048 5.24129 10.7102 5.24129 10.815 5.24989V4.81239C10.9196 4.75437 11.0071 4.66988 11.0687 4.56739C11.1321 4.46812 11.1656 4.35267 11.165 4.23489C11.1544 4.0623 11.0794 3.89995 10.955 3.77989C10.8309 3.66389 10.6697 3.59567 10.5 3.58739ZM10.7013 4.37489C10.6749 4.41311 10.6386 4.44338 10.5962 4.46239C10.5512 4.47996 10.5013 4.47996 10.4562 4.46239C10.4065 4.4584 10.3599 4.43683 10.3246 4.40156C10.2893 4.36629 10.2677 4.31961 10.2637 4.26989C10.2462 4.22488 10.2462 4.1749 10.2637 4.12989C10.2828 4.08755 10.313 4.05123 10.3512 4.02489C10.3963 3.99873 10.448 3.98655 10.5 3.98989H10.5962L10.675 4.04239L10.7275 4.12114C10.7316 4.15309 10.7316 4.18544 10.7275 4.21739C10.7353 4.27134 10.7261 4.32639 10.7013 4.37489ZM7.875 14.8749H7.91875V16.5724L7 17.4999C6.8075 17.4036 6.6325 17.2986 6.44875 17.1936L7.32375 16.3186V15.3299L6.615 16.0474H5.18875V16.2924C5.1001 16.2212 5.01539 16.1453 4.935 16.0649C4.80375 15.9424 4.69875 15.7936 4.57625 15.6536V15.4349H6.32625L7.20125 14.5599C7.19958 14.5832 7.19958 14.6066 7.20125 14.6299C7.28989 14.716 7.39575 14.7823 7.51188 14.8246C7.62801 14.8668 7.75176 14.8839 7.875 14.8749ZM3.6575 11.5586L2.625 10.5436C2.625 10.2549 2.625 9.97489 2.625 9.66864L3.885 10.9199H7V11.5324L3.6575 11.5586ZM4.5325 7.35864C4.56093 7.47513 4.62158 7.58126 4.7075 7.66489C4.82494 7.77824 4.98179 7.84158 5.145 7.84158C5.30821 7.84158 5.46506 7.77824 5.5825 7.66489C5.69012 7.54457 5.74961 7.38881 5.74961 7.22739C5.74961 7.06597 5.69012 6.91021 5.5825 6.78989C5.50106 6.70973 5.40009 6.65222 5.28959 6.62306C5.17909 6.5939 5.0629 6.5941 4.9525 6.62364L4.165 5.80989C4.0425 5.96739 3.92875 6.12489 3.82375 6.29114L4.57625 6.99989C4.53811 7.11601 4.53506 7.2408 4.5675 7.35864H4.5325ZM5.0225 6.99989C5.06864 6.95988 5.12767 6.93784 5.18875 6.93784C5.24983 6.93784 5.30886 6.95988 5.355 6.99989C5.37764 7.023 5.39549 7.05035 5.4075 7.08039C5.41952 7.11043 5.42546 7.14255 5.425 7.17489C5.42457 7.23739 5.3994 7.29717 5.355 7.34114C5.30886 7.38116 5.24983 7.40319 5.18875 7.40319C5.12767 7.40319 5.06864 7.38116 5.0225 7.34114C4.98926 7.29198 4.97102 7.23422 4.97 7.17489C4.96983 7.11265 4.9881 7.05176 5.0225 6.99989ZM7.07875 14.3586H3.87625L3.73625 14.4986C3.63125 14.3149 3.52625 14.1399 3.43875 13.9474L3.64 13.7461H7V13.9999C7.00422 14.1233 7.0309 14.2448 7.07875 14.3586ZM12.25 16.8436L13.125 17.7624V17.8936C12.9237 17.9636 12.7225 18.0424 12.5125 18.0949V18.0249L11.76 17.2724L12.25 16.8436ZM15.4613 6.99989C15.3469 7.01859 15.2404 7.07029 15.155 7.14864C15.0474 7.26896 14.9879 7.42472 14.9879 7.58614C14.9879 7.74756 15.0474 7.90332 15.155 8.02364C15.2753 8.13126 15.4311 8.19075 15.5925 8.19075C15.7539 8.19075 15.9097 8.13126 16.03 8.02364C16.1058 7.93956 16.1599 7.83814 16.1873 7.72829C16.2148 7.61844 16.2149 7.50352 16.1875 7.39364L17.1937 6.38739C17.0887 6.22114 16.9838 6.05489 16.87 5.89739L15.7937 6.99989C15.685 6.96923 15.57 6.96923 15.4613 6.99989ZM15.8637 7.59489C15.8719 7.62646 15.8719 7.65958 15.8637 7.69114C15.8525 7.71913 15.8378 7.74558 15.82 7.76989C15.7981 7.79316 15.7712 7.81111 15.7413 7.82239C15.6792 7.84593 15.6108 7.84593 15.5487 7.82239C15.5188 7.81111 15.4919 7.79316 15.47 7.76989C15.43 7.72375 15.408 7.66472 15.408 7.60364C15.408 7.54256 15.43 7.48354 15.47 7.43739C15.5173 7.39952 15.5757 7.37803 15.6363 7.37614C15.6939 7.37927 15.7491 7.40073 15.7937 7.43739C15.8186 7.45644 15.8394 7.48023 15.855 7.50739C15.8604 7.53035 15.8633 7.55381 15.8637 7.57739V7.59489ZM17.0538 13.8686L17.4212 14.2361C17.3162 14.4199 17.22 14.6124 17.1062 14.7874L16.625 14.2799L17.0538 13.8686ZM4.13 9.62489L2.91375 8.42614C2.975 8.21614 3.045 7.99739 3.12375 7.78739L4.375 9.02989H5.635V8.46114H6.2475V9.62489H4.13ZM12.5475 3.75364H11.935V2.76489C12.145 2.76489 12.3463 2.85239 12.5475 2.90489V3.75364ZM13.0375 5.07489C13.1119 5.11758 13.1967 5.13878 13.2825 5.13614C13.38 5.13479 13.4758 5.11083 13.5625 5.06614C13.6526 5.02509 13.7309 4.96188 13.79 4.88239C13.8516 4.80288 13.8936 4.70994 13.9125 4.61114C13.9342 4.51612 13.9342 4.41742 13.9125 4.32239L14.525 3.70989L13.9563 3.40364L13.4837 3.87614C13.372 3.84563 13.2542 3.84563 13.1425 3.87614C13.0303 3.90284 12.9293 3.96404 12.8537 4.05114C12.7461 4.17146 12.6866 4.32722 12.6866 4.48864C12.6866 4.65007 12.7461 4.80582 12.8537 4.92614C12.9003 4.99589 12.9635 5.05301 13.0375 5.09239V5.07489ZM13.125 4.37489C13.1711 4.33488 13.2302 4.31285 13.2912 4.31285C13.3523 4.31285 13.4114 4.33488 13.4575 4.37489C13.4808 4.39681 13.4987 4.42374 13.51 4.45364C13.5335 4.51565 13.5335 4.58413 13.51 4.64614C13.4987 4.67605 13.4808 4.70298 13.4575 4.72489C13.4114 4.76491 13.3523 4.78694 13.2912 4.78694C13.2302 4.78694 13.1711 4.76491 13.125 4.72489C13.0801 4.67771 13.055 4.61505 13.055 4.54989C13.055 4.48474 13.0801 4.42207 13.125 4.37489ZM8.19 2.97489L9.4675 4.26114V5.46864C9.24705 5.56538 9.04095 5.69198 8.855 5.84489V4.50614L7.56875 3.21114C7.77169 3.12189 7.97904 3.04304 8.19 2.97489ZM7.105 4.82114L6.23 3.94614C6.405 3.83239 6.58875 3.73614 6.78125 3.63114L7.56875 4.41864L7.105 4.82114ZM5.41625 4.50614L8.04125 7.13114C7.9538 7.3708 7.89791 7.62081 7.875 7.87489L4.97 4.91739C5.11 4.77739 5.25 4.63739 5.41625 4.50614Z" fill="white"/>
</svg>
