<svg width="23" height="20" viewBox="0 0 23 20" fill="none" xmlns="http://www.w3.org/2000/svg">
<path d="M18.4571 6.4191C18.2221 6.33884 17.9855 6.26409 17.7472 6.19486C17.7867 6.03403 17.8231 5.87228 17.8565 5.70961C18.3942 3.09498 18.0426 0.988571 16.8428 0.295165C15.6941 -0.37021 13.8101 0.323195 11.9095 1.98112C11.7226 2.14471 11.5396 2.31319 11.3604 2.48658C11.2409 2.3714 11.1184 2.25867 10.9928 2.14838C9.00079 0.37558 7.0042 -0.371129 5.80579 0.324574C4.65701 0.991328 4.31559 2.97137 4.79946 5.44953C4.84786 5.6946 4.90224 5.9386 4.96258 6.18153C4.67998 6.26194 4.40703 6.34787 4.14603 6.43886C1.81354 7.25449 0.32196 8.53332 0.32196 9.85947C0.32196 11.2297 1.9229 12.6037 4.35511 13.4368C4.55239 13.5039 4.75152 13.5662 4.95248 13.6238C4.88722 13.8839 4.82948 14.1469 4.77924 14.4128C4.31973 16.8482 4.67815 18.7814 5.82463 19.444C7.0088 20.1282 8.99527 19.4252 10.9317 17.7296C11.0848 17.5954 11.238 17.4537 11.3912 17.3045C11.5848 17.4917 11.7839 17.6733 11.9885 17.8495C13.8634 19.4661 15.7147 20.119 16.8594 19.4546C18.0426 18.7681 18.4272 16.6911 17.9278 14.1642C17.8895 13.9712 17.8453 13.7742 17.7954 13.5733C17.9351 13.5319 18.0719 13.4892 18.2058 13.4451C20.7331 12.6055 22.3795 11.2481 22.3795 9.86085C22.3786 8.52826 20.8392 7.24117 18.4571 6.4191ZM12.5294 2.69336C14.1574 1.27301 15.6794 0.712403 16.3732 1.1131C17.1117 1.53999 17.3989 3.26132 16.9347 5.51891C16.9041 5.66596 16.871 5.81254 16.8355 5.95867C15.8639 5.73767 14.8787 5.58171 13.8863 5.4918C13.3182 4.67335 12.6953 3.89423 12.0221 3.15977C12.1869 2.99986 12.3557 2.84439 12.5285 2.69336H12.5294ZM6.83464 10.9926C7.03407 11.3786 7.24254 11.7599 7.46004 12.1364C7.68153 12.5205 7.91235 12.899 8.15253 13.2718C7.46972 13.1976 6.79119 13.0882 6.11964 12.9442C6.31447 12.3137 6.55434 11.6589 6.83464 10.9926ZM6.83464 8.77181C6.55893 8.11976 6.3255 7.47828 6.13388 6.85885C6.76342 6.71778 7.43431 6.60244 8.13369 6.51514C7.89933 6.88091 7.67387 7.25204 7.45728 7.62854C7.2407 8.00503 7.03269 8.38612 6.83326 8.77181H6.83464ZM7.33551 9.88245C7.62592 9.27681 7.9387 8.68281 8.27384 8.10046C8.60867 7.51841 8.9651 6.94968 9.34313 6.39428C9.99931 6.34466 10.672 6.31846 11.3517 6.31846C12.0313 6.31846 12.7081 6.34466 13.3639 6.39474C13.7379 6.94892 14.0922 7.51565 14.4267 8.09494C14.7612 8.67424 15.0782 9.26548 15.3775 9.86866C15.0821 10.4764 14.766 11.0729 14.429 11.658C14.0948 12.2401 13.7425 12.8105 13.3721 13.3692C12.7173 13.4152 12.0395 13.4405 11.3503 13.4405C10.661 13.4405 9.99609 13.4189 9.35323 13.377C8.97245 12.8198 8.61311 12.2486 8.27522 11.6635C7.93732 11.0784 7.62363 10.4847 7.33413 9.88245H7.33551ZM15.2447 12.1299C15.4668 11.7446 15.68 11.3541 15.8843 10.9586C16.1644 11.5937 16.4116 12.2428 16.625 12.9033C15.9456 13.0563 15.2586 13.1736 14.5669 13.2548C14.8003 12.8845 15.0262 12.5095 15.2447 12.1299ZM15.8751 8.77227C15.6717 8.38474 15.4602 8.00181 15.2405 7.62348C15.0261 7.25036 14.8026 6.88183 14.5701 6.51789C15.2736 6.60704 15.9486 6.72559 16.5814 6.87034C16.3779 7.51574 16.1422 8.15051 15.8751 8.77227ZM11.3608 3.8348C11.8197 4.33617 12.253 4.86038 12.659 5.40541C11.7905 5.36406 10.9214 5.36406 10.0517 5.40541C10.4804 4.83837 10.9193 4.31223 11.3608 3.8348ZM6.28001 1.14113C7.01799 0.712863 8.64972 1.32493 10.3697 2.85373C10.4795 2.95161 10.5902 3.05408 10.7005 3.16023C10.0238 3.89459 9.3966 4.67303 8.82296 5.49042C7.83282 5.57963 6.84953 5.73313 5.87931 5.94993C5.82325 5.72447 5.77271 5.49747 5.72767 5.26894C5.31182 3.14461 5.58706 1.5432 6.28001 1.14113ZM5.20429 12.714C5.02048 12.6616 4.83898 12.6048 4.65977 12.5435C3.5845 12.1759 2.69627 11.6961 2.08649 11.1737C1.54059 10.7054 1.26396 10.2381 1.26396 9.85947C1.26396 9.05487 2.46145 8.02831 4.4585 7.33215C4.70939 7.24484 4.96243 7.16504 5.21762 7.09274C5.51421 8.04591 5.87341 8.97845 6.29288 9.88429C5.86841 10.8026 5.50476 11.7479 5.20429 12.714ZM10.3109 17.0182C9.45479 17.7682 8.59733 18.2998 7.84144 18.5677C7.16228 18.808 6.62143 18.8149 6.29471 18.6261C5.59901 18.224 5.30952 16.6713 5.70424 14.5888C5.75111 14.3437 5.80472 14.0986 5.86507 13.8536C6.845 14.0647 7.83816 14.2088 8.83766 14.285C9.4169 15.1067 10.0493 15.8895 10.7309 16.6286C10.5939 16.7632 10.4538 16.8928 10.3109 17.0182ZM11.387 15.9512C10.9404 15.4683 10.4947 14.9339 10.06 14.3595C10.4824 14.376 10.9125 14.3843 11.3503 14.3843C11.7997 14.3843 12.2445 14.3747 12.6829 14.3549C12.2783 14.9087 11.8458 15.4415 11.387 15.9512ZM17.1089 17.265C16.9775 17.9745 16.7133 18.4478 16.3865 18.6371C15.6913 19.0405 14.2048 18.5162 12.602 17.1336C12.4182 16.9755 12.2344 16.8059 12.0474 16.6281C12.7156 15.8862 13.3332 15.1002 13.896 14.2754C14.901 14.1902 15.899 14.0359 16.8828 13.8136C16.9279 13.9956 16.9677 14.1738 17.0023 14.3485C17.2233 15.4651 17.255 16.4751 17.1089 17.265ZM17.9085 12.5485C17.7881 12.5885 17.664 12.6271 17.5381 12.6648C17.2296 11.7072 16.8564 10.7716 16.421 9.86453C16.84 8.96959 17.1987 8.04757 17.4944 7.10469C17.7201 7.1704 17.9392 7.23933 18.1502 7.31239C20.1913 8.01637 21.4366 9.05854 21.4366 9.85947C21.4366 10.7142 20.0916 11.8234 17.9085 12.5485Z" fill="white"/>
<path d="M11.3503 11.8336C11.7413 11.8349 12.124 11.7201 12.4498 11.5038C12.7756 11.2874 13.0298 10.9793 13.1804 10.6183C13.3309 10.2574 13.3709 9.85992 13.2954 9.47621C13.2199 9.0925 13.0322 8.73983 12.7562 8.46285C12.4801 8.18587 12.128 7.99704 11.7446 7.92028C11.3611 7.84351 10.9635 7.88227 10.6021 8.03163C10.2406 8.18099 9.93166 8.43424 9.71425 8.75931C9.49685 9.08439 9.3808 9.46666 9.3808 9.85773C9.38026 10.1168 9.43078 10.3735 9.52949 10.613C9.62819 10.8526 9.77314 11.0703 9.95605 11.2538C10.139 11.4374 10.3562 11.583 10.5955 11.6825C10.8347 11.782 11.0912 11.8333 11.3503 11.8336Z" fill="white"/>
</svg>
