<svg width="20" height="20" viewBox="0 0 20 20" fill="none" xmlns="http://www.w3.org/2000/svg">
<g clip-path="url(#clip0_100_711)">
<path d="M9.50499 9.42667C8.85499 9.32417 8.50666 8.88167 8.67999 7.51417L8.69916 7.34917C8.84499 6.16083 8.96666 5.89667 9.52916 5.9275C9.69416 5.93833 9.88416 6.04417 10.0742 6.2025C10.25 6.40833 10.6408 6.67583 10.8617 7.20583C11.02 7.59417 11.0733 7.8475 11.0958 8.12083L11.1308 8.45583V8.45417C11.1533 8.58664 11.2221 8.70682 11.325 8.79326C11.4279 8.8797 11.5581 8.92677 11.6925 8.92607C11.8268 8.92537 11.9566 8.87694 12.0585 8.78944C12.1605 8.70193 12.2281 8.58104 12.2492 8.44833C12.2558 8.41167 12.3958 4.81083 12.3958 4.75167C12.3958 4.435 12.1442 4.17667 11.8292 4.17167C11.7542 4.17199 11.68 4.18708 11.6109 4.21607C11.5418 4.24506 11.479 4.28739 11.4262 4.34063C11.3735 4.39387 11.3317 4.45698 11.3033 4.52636C11.2749 4.59574 11.2605 4.67004 11.2608 4.745C11.2608 4.7525 11.26 5.24917 11.2492 5.75C10.8025 5.25667 10.23 4.81417 9.58749 4.775C7.87249 4.68333 7.68499 6.28417 7.57166 7.20667L7.55499 7.37C7.32332 9.19417 7.92249 10.3442 9.32999 10.5675C10.8617 10.8117 11.8825 11.1675 11.8917 12.1242C11.8975 12.4958 11.705 12.8767 11.3692 13.1692C11.1715 13.3413 10.9388 13.4683 10.687 13.5413C10.4353 13.6142 10.1707 13.6314 9.91166 13.5917C9.75883 13.5655 9.60855 13.5262 9.46249 13.4742C9.26249 13.3608 8.75666 13.0492 8.50082 12.6892C8.28416 12.3858 8.20916 11.9083 8.18582 11.6058C8.18916 11.47 8.18999 11.3808 8.18999 11.37C8.19291 11.2186 8.13601 11.0722 8.03163 10.9625C7.92726 10.8528 7.78383 10.7887 7.63249 10.7842C7.55709 10.7834 7.48227 10.7975 7.41232 10.8256C7.34236 10.8538 7.27864 10.8954 7.22478 10.9482C7.17092 11.001 7.12798 11.0638 7.09842 11.1332C7.06886 11.2026 7.05325 11.2771 7.05249 11.3525C7.05249 11.3633 7.03832 12.4917 6.99749 13.1717C6.93916 14.2658 6.99749 15.1933 6.99749 15.2333C7.02082 15.5517 7.28916 15.7917 7.60332 15.77C7.67836 15.7652 7.75169 15.7454 7.81904 15.712C7.8864 15.6786 7.94644 15.6321 7.99567 15.5753C8.04491 15.5184 8.08236 15.4524 8.10584 15.3809C8.12933 15.3095 8.13839 15.2341 8.13249 15.1592C8.13249 15.1542 8.10499 14.705 8.10832 14.0842C8.59771 14.4056 9.14706 14.6247 9.72332 14.7283C10.1459 14.7989 10.5789 14.7742 10.9906 14.6559C11.4024 14.5377 11.7826 14.329 12.1033 14.045C12.6975 13.5292 13.0383 12.825 13.0283 12.1117C13.0083 9.9825 10.6408 9.60833 9.50499 9.42667ZM11.8117 0C11.0156 0.000651139 10.2333 0.208276 9.54166 0.6025H9.44832C7.25082 0.6025 5.33416 1.7625 4.32333 3.70917C3.71666 4.87 3.57333 6.00083 3.49083 6.69167C3.48083 6.76583 3.47582 6.83333 3.46749 6.91C3.36749 7.72167 3.36499 8.49667 3.45916 9.22C3.12864 9.87416 2.95058 10.5947 2.93833 11.3275V11.3408C2.93146 11.8827 2.91563 12.4245 2.89083 12.9658C2.84819 13.7819 2.84596 14.5996 2.88416 15.4158L2.89499 15.59C3.08166 18.0633 5.13249 20 7.56916 20C8.61797 20.003 9.63625 19.6472 10.455 18.9917C12.0544 18.9286 13.5832 18.3164 14.7842 17.2583C16.3058 15.9358 17.1667 14.0542 17.1425 12.1C17.1317 10.965 16.8542 9.90167 16.3275 8.96417C16.425 7.90333 16.5117 4.80083 16.5117 4.7725C16.5117 2.18667 14.4417 0.0475 11.8958 0L11.8117 0ZM11.8583 2.22917C13.2267 2.25417 14.34 3.40583 14.34 4.79667C14.34 4.82833 14.2192 8.54417 14.1608 8.86583C14.1266 9.06333 14.0698 9.25625 13.9917 9.44083C14.6217 10.1825 14.9625 11.1075 14.9708 12.1542C14.9883 13.45 14.4033 14.7175 13.3658 15.6208C12.4915 16.3933 11.3658 16.821 10.1992 16.8242C9.99909 16.8228 9.79929 16.8095 9.60082 16.7842C9.5555 16.8458 9.50768 16.9056 9.45749 16.9633C9.22438 17.2355 8.93495 17.4538 8.60921 17.6032C8.28346 17.7525 7.92917 17.8293 7.57082 17.8283C6.25999 17.8283 5.15666 16.7825 5.05999 15.4483L5.05332 15.3467C5.01873 14.6076 5.02012 13.8673 5.05749 13.1283C5.08999 12.5625 5.10749 11.6025 5.10916 11.395C5.11792 10.7726 5.3494 10.1739 5.76166 9.7075C5.56416 9.01167 5.50166 8.1775 5.62249 7.19083L5.64249 7.01417C5.71166 6.435 5.81582 5.58083 6.24249 4.76417C6.87999 3.53667 8.04916 2.8325 9.44916 2.8325C9.67934 2.83114 9.90917 2.85067 10.1358 2.89083C10.5908 2.47417 11.1942 2.21583 11.8583 2.22917Z" fill="white"/>
</g>
<defs>
<clipPath id="clip0_100_711">
<rect width="20" height="20" fill="white"/>
</clipPath>
</defs>
</svg>
