<svg width="27" height="34" viewBox="0 0 27 34" fill="none" xmlns="http://www.w3.org/2000/svg">
<path d="M23.2885 8.54536C21.5931 8.54536 20.2192 9.9193 20.2192 11.6147V16.2881C20.2192 16.4246 20.1938 16.5381 20.1479 16.6467C20.0802 16.8082 19.9591 16.9556 19.8102 17.0553C19.6592 17.1549 19.4989 17.2097 19.2971 17.2107H17.812V4.87422C17.812 2.18198 15.63 0 12.9378 0C10.2456 0 8.06358 2.18204 8.06358 4.87422V19.2568H7.16291C7.01296 19.2568 6.88593 19.2283 6.76487 19.1775C6.58504 19.1023 6.42215 18.9677 6.31105 18.8029C6.20042 18.6355 6.13972 18.4546 6.13813 18.232V15.8267C6.13813 14.1319 4.76418 12.7574 3.06883 12.7574C1.37401 12.7574 1.05137e-06 14.132 1.05137e-06 15.8267V18.232C-0.000530199 19.2123 0.200282 20.1624 0.563989 21.0208C1.10998 22.3106 2.0147 23.398 3.15556 24.1697C4.29536 24.9419 5.69029 25.3957 7.16291 25.3948H8.06358V34H17.812V23.3488H19.2971C20.2636 23.3494 21.1997 23.1511 22.0461 22.7929C23.3175 22.2543 24.389 21.3636 25.1498 20.2382C25.9105 19.1148 26.3588 17.7398 26.3574 16.2881V11.6147C26.3573 9.9193 24.9833 8.54536 23.2885 8.54536Z" fill="#FFE000"/>
</svg>
