<svg width="30" height="29" viewBox="0 0 30 29" fill="none" xmlns="http://www.w3.org/2000/svg">
<path d="M16.225 11.7322L17.3664 11.7261C18.0905 10.9678 18.9647 10.0661 20.1072 10.133C21.254 10.0713 22.1238 10.9573 22.8481 11.7261C23.3328 11.7447 24.2683 11.6728 24.722 11.8421V4.57812H4.57812V16.1761H12.9225L13.4903 15.6023L13.5025 14.4608C13.5092 13.7402 13.7979 13.051 14.3069 12.5409C14.8159 12.0308 15.5044 11.7405 16.225 11.7322ZM8.54585 9.18675C7.34572 9.16872 7.33902 7.37494 8.54585 7.35549H20.7542C21.9529 7.37673 21.9599 9.1641 20.7542 9.18675H8.54585Z" fill="#FFE000"/>
<path d="M28.3845 3.65323e-06H0.915629C0.673636 -0.000680417 0.44127 0.09473 0.269584 0.265272C0.0978972 0.435814 0.000934605 0.667537 0 0.909528V19.8386C0.000704916 20.0813 0.097399 20.3137 0.26896 20.4853C0.440521 20.6569 0.673006 20.7536 0.915629 20.7543H13.1668C12.3555 20.0371 11.7553 19.0971 11.9276 18.0074H3.66252C3.41989 18.0067 3.18741 17.91 3.01585 17.7384C2.84429 17.5668 2.74759 17.3344 2.74689 17.0917V3.66252C2.74672 3.54223 2.77029 3.42309 2.81624 3.31192C2.8622 3.20076 2.92963 3.09975 3.01469 3.01469C3.09975 2.92964 3.20075 2.8622 3.31192 2.81624C3.42309 2.77029 3.54223 2.74672 3.66252 2.74689H25.6376C25.8802 2.74759 26.1127 2.84428 26.2843 3.01584C26.4558 3.1874 26.5525 3.41989 26.5532 3.66252V13.5574C26.7854 14.0742 26.7079 15.039 26.7242 15.6023L27.53 16.4141C28.8177 17.7725 28.4271 19.6306 27.0477 20.7543H28.3845C28.6268 20.7525 28.8587 20.6555 29.03 20.4842C29.2014 20.3128 29.2984 20.0809 29.3001 19.8386V0.909528C29.2982 0.667859 29.2009 0.436738 29.0294 0.26642C28.8579 0.0961008 28.6262 0.000355999 28.3845 3.65323e-06Z" fill="#FFE000"/>
<path d="M25.3751 24.9417L22.848 24.96L21.682 26.1076L22.5902 28.6076C22.6108 28.6643 22.6478 28.7137 22.6964 28.7494C22.7451 28.7851 22.8032 28.8056 22.8635 28.8082C22.9238 28.8109 22.9836 28.7956 23.0352 28.7643C23.0868 28.7331 23.128 28.6872 23.1535 28.6325L24.0016 26.8157L25.8113 27.6626C25.866 27.6882 25.927 27.697 25.9867 27.6878C26.0464 27.6787 26.102 27.6521 26.1466 27.6113C26.1911 27.5705 26.2226 27.5175 26.237 27.4588C26.2513 27.4002 26.248 27.3386 26.2274 27.2818L25.3751 24.9417Z" fill="#FFE000"/>
<path d="M14.8454 24.9417L13.9931 27.2818C13.9725 27.3386 13.9691 27.4002 13.9835 27.4588C13.9979 27.5175 14.0293 27.5705 14.0739 27.6113C14.1184 27.6521 14.1741 27.6787 14.2338 27.6878C14.2935 27.697 14.3545 27.6882 14.4092 27.6626L16.2188 26.8157L17.0673 28.6331C17.0928 28.6877 17.1339 28.7336 17.1855 28.7649C17.2371 28.7962 17.2968 28.8115 17.3571 28.8088C17.4173 28.8062 17.4755 28.7857 17.5241 28.75C17.5727 28.7143 17.6097 28.665 17.6303 28.6083L18.5385 26.1137L17.3664 24.96L14.8454 24.9417Z" fill="#FFE000"/>
<path d="M24.9002 16.3576L24.8865 14.4715C24.8847 14.2315 24.7886 14.0019 24.6188 13.8322C24.4491 13.6624 24.2195 13.5663 23.9795 13.5645L22.0934 13.5508L20.7505 12.2272C20.5795 12.0587 20.3491 11.9643 20.1091 11.9643C19.8691 11.9643 19.6387 12.0587 19.4678 12.2272L18.125 13.5508L16.2389 13.5645C15.9989 13.5662 15.7692 13.6623 15.5995 13.832C15.4298 14.0017 15.3337 14.2314 15.3319 14.4714L15.3181 16.3576L13.9946 17.7004C13.826 17.8713 13.7316 18.1017 13.7316 18.3417C13.7316 18.5818 13.826 18.8122 13.9946 18.9831L15.3181 20.326L15.3318 22.2121C15.3336 22.4521 15.4297 22.6817 15.5994 22.8514C15.7691 23.0211 15.9988 23.1173 16.2388 23.1191L18.1249 23.1328L19.4678 24.4564C19.6388 24.6248 19.8691 24.7193 20.1092 24.7193C20.3492 24.7193 20.5796 24.6248 20.7505 24.4564L22.0932 23.1328L23.9793 23.1191C24.2193 23.1173 24.449 23.0212 24.6187 22.8515C24.7884 22.6818 24.8846 22.4521 24.8863 22.2121L24.9002 20.326L26.2237 18.9832C26.3922 18.8122 26.4867 18.5818 26.4867 18.3418C26.4867 18.1018 26.3922 17.8714 26.2237 17.7005L24.9002 16.3576ZM20.1092 20.7835C16.8819 20.6839 16.8825 15.9992 20.1092 15.9001C23.3366 15.9998 23.3358 20.6843 20.1092 20.7835Z" fill="#FFE000"/>
</svg>
