<svg width="20" height="20" viewBox="0 0 20 20" fill="none" xmlns="http://www.w3.org/2000/svg">
<rect width="20" height="20" rx="3" fill="white"/>
<path d="M10.509 5.86956L8.02737 10.1505L10.6681 14.699C10.6796 14.7125 10.6884 14.7284 10.6938 14.7457C10.6993 14.7629 10.7014 14.7812 10.6999 14.7993C10.6681 14.8328 10.6363 14.7993 10.6045 14.7993H8.72732C8.56824 14.7993 8.50461 14.7993 8.44098 14.699L7.90011 13.6287C7.74103 13.2608 7.55013 12.9264 7.35924 12.5251C7.16834 12.1237 6.94563 11.7893 6.75473 11.4214L6.18205 12.5251C5.99115 12.893 5.80026 13.2608 5.64118 13.6287L5.06849 14.7324C5.0498 14.7672 5.02164 14.7954 4.98763 14.8132C4.95362 14.8311 4.9153 14.8379 4.8776 14.8328H3.06409C3.03227 14.8328 3.00046 14.8328 3.00046 14.7993C2.99899 14.7812 3.00106 14.7629 3.00653 14.7457C3.012 14.7284 3.02076 14.7125 3.03227 14.699L5.57755 10.2843L3.0959 5.86956V5.76923H5.13212L5.22757 5.86956C5.38665 6.23745 5.54573 6.60535 5.73663 6.97324C5.92752 7.34113 6.11842 7.70902 6.34113 8.07692C6.56384 8.44481 6.72292 8.8127 6.882 9.18059H6.91381C7.07289 8.77925 7.26379 8.41136 7.42287 8.04347L7.99556 6.97324C8.18645 6.60535 8.37735 6.23745 8.53643 5.86956L8.60006 5.80267H10.4454L10.5408 5.86956V5.93645L10.509 5.86956ZM15.5677 14.8662C16.0232 14.7724 16.4702 14.6381 16.904 14.4649C16.9346 14.451 16.9602 14.4274 16.9773 14.3974C16.9945 14.3674 17.0022 14.3325 16.9995 14.2976C16.9995 14.1639 16.9676 13.9966 16.9676 13.796C16.9676 13.5953 16.9358 13.4615 16.9358 13.2943V5.06689C16.9358 5.05811 16.9342 5.04941 16.931 5.04129C16.9278 5.03318 16.9231 5.0258 16.9172 5.01959C16.9113 5.01338 16.9043 5.00845 16.8966 5.00509C16.8888 5.00173 16.8806 5 16.8722 5H15.186C15.1541 5 15.1223 5.03344 15.1223 5.10033V7.8428H14.6769C13.9582 7.82263 13.2465 7.99529 12.6089 8.34447C12.0711 8.66401 11.6216 9.12501 11.3044 9.68226C10.9866 10.2358 10.8316 10.8758 10.859 11.5217C10.8287 12.2103 10.983 12.8941 11.3044 13.495C11.6132 13.9762 12.0426 14.3582 12.5452 14.5986C13.0936 14.8652 13.6909 15.0022 14.2951 15C14.722 14.9902 15.1475 14.9455 15.5677 14.8662ZM14.8042 13.2943H14.486C14.2464 13.3015 14.0079 13.256 13.7861 13.1605C13.5768 13.1117 13.3875 12.9946 13.2452 12.8261C13.0765 12.6714 12.9456 12.4764 12.8634 12.2575C12.7587 11.9699 12.7153 11.6617 12.7361 11.3545C12.7103 10.9678 12.7992 10.5822 12.9907 10.2508C13.1678 9.97898 13.409 9.76004 13.6906 9.61537C13.974 9.45554 14.2917 9.37492 14.6133 9.38126H15.1223V13.2608L14.8042 13.2943Z" fill="#191919"/>
</svg>
