<svg width="20" height="20" viewBox="0 0 20 20" fill="none" xmlns="http://www.w3.org/2000/svg">
<rect width="20" height="20" rx="3" fill="white"/>
<path d="M9.61404 14.8619H10.3857C10.5258 14.8619 10.64 14.9761 10.64 15.1162V15.7342C10.64 15.874 10.5258 15.9882 10.3857 15.9882H9.61404C9.47428 15.9882 9.36005 15.874 9.36005 15.7342V15.1162C9.36005 14.9761 9.47428 14.8619 9.61404 14.8619ZM6.40294 7.42239C6.41259 9.32999 8.03266 12.3056 9.53023 14.3592H9.6776C8.5387 12.2817 7.56738 9.72013 7.5588 7.70123C7.55081 5.86956 8.29896 4.7072 9.30869 4.04385C9.08454 4.06471 8.85996 4.09581 8.63744 4.13859C7.39221 4.63373 6.39401 5.65555 6.40294 7.42239ZM9.69914 4.01762C9.11562 4.8029 8.6655 5.91634 8.66951 7.53203C8.67487 9.64089 9.16823 12.1476 9.80449 14.3592H10.1955C10.8318 12.1476 11.3251 9.64089 11.3305 7.53203C11.3345 5.91634 10.8844 4.8029 10.3009 4.01762C10.1005 4.00975 9.89953 4.00975 9.69914 4.01762ZM13.5971 7.42239C13.5874 9.32999 11.9674 12.3056 10.4698 14.3592H10.3224C11.4613 12.2817 12.4327 9.72013 12.4411 7.70123C12.4492 5.86959 11.7011 4.7072 10.6913 4.04385C10.9155 4.06471 11.1401 4.09581 11.3623 4.13859C12.6078 4.63373 13.606 5.65555 13.5971 7.42239ZM10.5715 14.3592C12.2479 12.595 14.1498 9.64628 14.1624 7.37404C14.17 5.98059 13.4917 5.05652 12.5416 4.49219C13.7057 4.99159 14.5912 5.91332 14.5826 7.41147C14.569 9.71948 12.3568 12.7686 10.6006 14.3592H10.5715ZM9.42858 14.3592C7.75216 12.5951 5.85023 9.64628 5.83765 7.37404C5.83005 5.98059 6.50803 5.05652 7.45812 4.49219C6.2944 4.99162 5.40881 5.91334 5.41739 7.41147C5.43105 9.71948 7.64323 12.7686 9.39942 14.3592H9.42858Z" fill="#191919"/>
</svg>
